<svg xmlns="http://www.w3.org/2000/svg" shape-rendering="geometricPrecision" text-rendering="geometricPrecision" image-rendering="optimizeQuality" fill-rule="evenodd" clip-rule="evenodd" viewBox="0 0 511.999 468.552"><path fill="#fff" fill-rule="nonzero" d="M483.381 151.574H28.619v219.35c0 37.906 31.106 69.009 69.013 69.009h316.736c37.884 0 69.013-31.125 69.013-69.009v-219.35z"/><path fill="#FD5" d="M353.177 122.961l36.214-92.198c.286-.725.62-1.441.999-2.144H284.447l-37.054 94.342h105.784zm62.346-94.329l-37.051 94.329h104.909V97.632c0-18.947-7.774-36.205-20.296-48.724-12.254-12.258-29.061-19.968-47.562-20.276zM88.36 122.961l36.215-92.198c.286-.725.62-1.441.998-2.144H97.632c-18.963 0-36.218 7.77-48.73 20.283-12.512 12.512-20.283 29.767-20.283 48.73v25.329H88.36zm62.353-94.342l-37.057 94.342h108.681l36.128-91.982c.315-.798.687-1.587 1.116-2.36H150.713z"/><path fill="#212121" fill-rule="nonzero" d="M97.632 0h316.736c53.705 0 97.631 43.927 97.631 97.632v273.292c0 53.682-43.949 97.628-97.631 97.628H97.632C43.927 468.552 0 424.628 0 370.924V97.632C0 43.902 43.902 0 97.632 0zm255.545 122.961l36.214-92.198c.286-.725.62-1.441.999-2.144H284.447l-37.054 94.342h105.784zm62.346-94.329l-37.051 94.329h104.909V97.632c0-37.461-30.413-68.377-67.858-69zM88.36 122.961l36.215-92.198c.286-.725.62-1.441.998-2.144H97.632c-37.929 0-69.013 31.084-69.013 69.013v25.329H88.36zm62.353-94.342l-37.057 94.342h108.681l36.128-91.982c.315-.798.687-1.587 1.116-2.36H150.713zm332.668 122.955H28.619v219.35c0 37.906 31.106 69.009 69.013 69.009h316.736c37.884 0 69.013-31.125 69.013-69.009v-219.35z"/><path fill="#212121" d="M245.415 194.762c11.869 0 23.268 2.41 33.68 6.714 10.816 4.449 20.556 11.029 28.693 19.132a88.339 88.339 0 0119.164 28.624 88.416 88.416 0 016.716 33.782 87.858 87.858 0 01-3.687 25.207 88.042 88.042 0 01-8.104 18.819l31.293 36.662c2.376 2.589 2.22 6.657-.381 9.044l-24.445 22.305c-2.578 2.41-6.669 2.207-9.023-.37l-29.735-35.283c-5.828 3.373-12.082 6.142-18.628 8.103l-.224.056a88.225 88.225 0 01-25.319 3.721c-11.847 0-23.268-2.421-33.692-6.714-10.816-4.472-20.578-11.062-28.704-19.132a88.503 88.503 0 01-19.15-28.632 88.213 88.213 0 01-6.718-33.759v-.022c0-11.835 2.421-23.257 6.714-33.68a88.832 88.832 0 0119.144-28.711c8.125-8.125 17.82-14.704 28.614-19.154a88.229 88.229 0 0133.792-6.713v.001zm.168 25.756c34.207 0 61.948 27.762 61.948 61.97 0 34.207-27.741 61.958-61.948 61.958-34.229 0-61.981-27.751-61.981-61.958 0-34.208 27.752-61.97 61.981-61.97z"/></svg>